# xmcd CD database file
#
# Track frame offsets:
#	150
#	10589
#	24882
#	37999
#	48675
#	61607
#	73816
#	87533
#	100306
#	111882
#	123314
#	136708
#	145706
#	155146
#	166865
#	180502
#	191072
#	202877
#	214424
#	223538
#	234562
#	246413
#	260566
#	271112
#	281524
#	300136
#
# Disc length: 4153 seconds
#
# Revision: 0
# Processed by: cddbd v1.5.2PL0 Copyright (c) Steve Scherf et al.
# Submitted via: CDex 1.51
#
DISCID=6c10371a
DTITLE=Slim Whitman - TheVery Best Of
DYEAR=1900
DGENRE=Country
TTITLE0=Rose Marie
TTITLE1=Indian Love Call
TTITLE2=I'll Take You Home Again Kathleen
TTITLE3=Serenade
TTITLE4=China Doll
TTITLE5=I'm A Fool
TTITLE6=Tumbling Tunbleweeds
TTITLE7=Cool Water
TTITLE8=We Three
TTITLE9=Love Song Of The Waterfall
TTITLE10=All My Love
TTITLE11=When My Dreamboat Comes In
TTITLE12=The Old Spinning Wheel
TTITLE13=When I Grow Too Old To Dream
TTITLE14=All Kinds Of Everything
TTITLE15=Rhinestone Cowboy
TTITLE16=Secret Love
TTITLE17=Together
TTITLE18=It's A Small World
TTITLE19=Annie Laurie
TTITLE20=Blue Eyes Crying In The Rain
TTITLE21=Red River Valley
TTITLE22=The Old Lamplighter
TTITLE23=It's All In The Game
TTITLE24=Home On The Range
TTITLE25=Happy Anniversary
EXTD=
EXTT0=
EXTT1=
EXTT2=
EXTT3=
EXTT4=
EXTT5=
EXTT6=
EXTT7=
EXTT8=
EXTT9=
EXTT10=
EXTT11=
EXTT12=
EXTT13=
EXTT14=
EXTT15=
EXTT16=
EXTT17=
EXTT18=
EXTT19=
EXTT20=
EXTT21=
EXTT22=
EXTT23=
EXTT24=
EXTT25=
PLAYORDER=
